<?xml version="1.0" encoding="UTF-8"?>
<svg xmlns="http://www.w3.org/2000/svg" width="1250" height="335" viewBox="0 0 1250 335" fill="none">
  <path fill-rule="evenodd" clip-rule="evenodd" d="M467.04 188.935C433.658 188.935 414.797 208.171 414.797 241.352C414.797 274.533 433.658 293.769 467.04 293.769C500.422 293.769 519.284 274.533 519.284 241.352C519.284 208.171 500.432 188.935 467.04 188.935ZM467.04 274.254C448.044 274.254 444.136 256.689 444.136 241.774C444.136 226.024 448.044 208.459 467.04 208.459C486.036 208.459 489.945 226.024 489.945 241.774C489.945 256.689 486.036 274.254 467.04 274.254Z" fill="#004494"></path>
  <path fill-rule="evenodd" clip-rule="evenodd" d="M570.433 219.609C562.472 219.609 553.953 222.817 549.065 229.088H548.786V191.028H522.242V291.675H548.085L548.786 281.361H549.343C551.159 288.468 560.791 293.769 568.896 293.769C592.089 293.769 601.587 276.905 601.587 255.575C601.587 235.782 591.945 219.609 570.433 219.609ZM560.791 278.432C551.149 278.432 548.777 265.467 548.777 257.659C548.777 248.324 549.756 234.937 561.77 234.937C573.083 234.937 574.342 247.758 574.342 256.401C574.342 265.044 572.382 278.422 560.791 278.422V278.432Z" fill="#004494"></path>
  <path fill-rule="evenodd" clip-rule="evenodd" d="M774.372 221.693L762.079 271.047H761.8L749.652 221.693H720.313L708.021 271.325H707.742L696.429 221.693H675.378H669.606H650.937L635.85 270.346H635.571L621.742 221.693H593.383L622.722 293.769L612.801 318.441H637.242L672.122 229.943L690.984 291.676H719.756L733.441 242.889H733.72L746.435 291.676H775.774L797.843 221.693H774.372Z" fill="#004494"></path>
  <path fill-rule="evenodd" clip-rule="evenodd" d="M861.337 277.318V241.352C861.616 225.602 844.435 219.609 830.193 219.609C822.376 219.609 813.291 220.445 806.03 223.797C798.905 227.004 793.738 232.718 793.882 242.62H818.89C818.745 238.433 820.839 232.161 827.273 231.883C837.885 231.47 836.493 240.382 836.493 246.519H828.109C805.195 246.519 789.56 253.491 789.272 270.5C788.994 284.857 797.656 293.779 814.27 293.779C827.398 293.779 833.41 287.229 836.618 282.207H836.896C836.896 287.22 836.896 289.448 837.453 291.685H862.874C861.894 283.321 861.337 280.257 861.337 277.328V277.318ZM824.047 278.432C819.014 278.432 814.971 274.255 814.971 269.232C814.971 264.209 818.044 261.847 821.953 259.897C825.583 258.092 830.894 258.37 836.483 258.37C836.483 267.705 835.504 278.442 824.047 278.442V278.432Z" fill="#004494"></path>
  <path fill-rule="evenodd" clip-rule="evenodd" d="M862.135 221.694V238.423H875.82V269.789C874.427 291.263 885.318 293.77 903.334 293.77C907.252 293.77 911.583 293.491 917.586 292.377V276.627C914.512 277.05 910.882 277.05 907.387 277.05C901.24 277.05 902.354 267.984 902.354 266.178V238.443H917.72V221.713H902.354V201.084L875.81 211.12V221.713H862.125L862.135 221.694Z" fill="#004494"></path>
  <path fill-rule="evenodd" clip-rule="evenodd" d="M954.41 278.855C944.489 278.855 942.117 271.047 942.252 261.991H992.536C992.536 235.926 983.461 219.609 954.957 219.609C933.868 219.609 917.234 232.152 917.234 254.317C917.234 281.784 928.413 293.769 956.484 293.769C964.724 293.769 972.551 292.233 978.697 288.334C985.4 284.435 991.134 277.875 991.969 268.819H967.384C966.405 275.369 961.795 278.855 954.391 278.855H954.41ZM954.967 232.853C959.02 232.574 962.083 234.38 964.186 237.309C966.28 240.238 967.403 244.003 967.403 247.768H942.818C943.519 239.816 945.757 233.266 954.976 232.853H954.967Z" fill="#004494"></path>
  <path d="M1023.24 191.028H996.695V291.675H1023.24V191.028Z" fill="#004494"></path>
  <path fill-rule="evenodd" clip-rule="evenodd" d="M1093.31 243.302C1092.2 223.931 1076.83 219.6 1060.21 219.6C1046.24 219.6 1027.8 224.344 1027.8 241.621C1027.8 266.994 1069.28 259.609 1069.28 272.017C1069.28 276.473 1065.51 278.432 1060.34 278.432C1057.83 278.432 1055.59 277.04 1054.05 275.224C1052.52 273.419 1051.81 271.047 1052.24 268.953H1027.09C1026.96 290.283 1043.72 293.769 1060.9 293.769C1076.97 293.769 1094.42 289.025 1094.42 270.49C1094.42 259.061 1088.69 253.904 1080.31 251.254C1063.68 246.096 1052.93 246.375 1052.93 241.218C1052.93 237.174 1055.3 234.946 1059.22 234.946C1062.85 234.946 1065.09 235.926 1066.48 237.453C1067.74 238.845 1068.16 240.939 1068.16 243.302H1093.3H1093.31Z" fill="#004494"></path>
  <path d="M1124.41 191.028H1097.88V291.675H1124.41V191.028Z" fill="#004494"></path>
  <path fill-rule="evenodd" clip-rule="evenodd" d="M1149.57 291.676H1180.99L1153.75 251.11L1177.49 221.693H1148.59L1124.41 252.646L1149.57 291.676Z" fill="#004494"></path>
  <path fill-rule="evenodd" clip-rule="evenodd" d="M1248.32 277.318V241.352C1248.6 225.602 1231.42 219.609 1217.18 219.609C1209.35 219.609 1200.27 220.445 1193.01 223.797C1185.89 227.004 1180.72 232.718 1180.87 242.62H1205.86C1205.73 238.433 1207.82 232.161 1214.25 231.883C1224.86 231.47 1223.47 240.382 1223.47 246.519H1215.08C1192.18 246.519 1176.54 253.491 1176.26 270.5C1175.98 284.857 1184.63 293.779 1201.25 293.779C1214.38 293.779 1220.39 287.229 1223.6 282.207H1223.88C1223.88 287.22 1223.88 289.448 1224.44 291.685H1249.86C1248.88 283.321 1248.32 280.257 1248.32 277.328V277.318ZM1211.02 278.432C1205.99 278.432 1201.95 274.255 1201.95 269.232C1201.95 264.209 1205.02 261.847 1208.93 259.897C1212.56 258.092 1217.87 258.37 1223.46 258.37C1223.46 267.705 1222.48 278.442 1211.02 278.442V278.432Z" fill="#004494"></path>
  <path d="M449.362 81.9492V125.694L481.025 81.9492H514.916L479.92 125.694L518.248 182.491H482.148L449.371 128.883V182.491H420.906V81.9492H449.371H449.362Z" fill="#004494"></path>
  <path d="M510.468 133.406C511.995 129.286 514.146 125.377 516.921 121.67C519.697 117.973 523.702 115.188 528.926 113.334C534.15 111.481 540.613 110.559 548.296 110.559C554.318 110.559 559.801 111.279 564.757 112.71C569.712 114.15 574.13 116.254 578.019 119.029C581.909 121.901 584.847 125.531 586.835 129.929C588.823 134.328 589.822 139.533 589.822 145.555C589.822 151.576 589.035 156.801 587.46 161.247C585.885 165.694 583.57 169.391 580.516 172.359C577.366 175.23 574.101 177.612 570.73 179.513C567.35 181.415 563.806 182.683 560.109 183.336C559.091 183.518 558.073 183.701 557.055 183.893C556.037 184.085 555.019 184.219 554.001 184.315C553.069 184.498 552.128 184.613 551.149 184.661C550.179 184.709 549.228 184.728 548.306 184.728C542.284 184.728 536.849 183.874 531.989 182.164C527.12 180.455 522.799 177.881 519.005 174.452C515.298 170.937 512.494 166.865 510.602 162.227C508.701 157.598 507.75 152.412 507.75 146.678V146.4C508.029 141.867 508.931 137.535 510.458 133.415L510.468 133.406ZM561.357 146.044V144.172C561.261 141.953 560.963 139.802 560.454 137.718C559.945 135.634 559.273 133.617 558.438 131.677C557.506 129.824 556.219 128.412 554.548 127.442C552.877 126.472 550.793 125.982 548.296 125.982C546.078 125.982 544.157 126.424 542.534 127.298C540.911 128.181 539.547 129.497 538.433 131.255C537.319 133.012 536.484 135.096 535.927 137.507C535.37 139.917 535.091 142.597 535.091 145.564C535.091 149.454 535.418 152.834 536.071 155.696C536.714 158.568 537.636 160.978 538.846 162.918C540.143 164.868 541.555 166.299 543.081 167.221C544.608 168.143 546.347 168.613 548.287 168.613C550.227 168.613 552.08 168.219 553.569 167.432C555.048 166.644 556.248 165.511 557.18 164.032C558.101 162.457 558.87 160.834 559.475 159.173C560.07 157.511 560.522 155.754 560.8 153.9C560.896 153.257 560.963 152.623 561.011 152.028C561.059 151.432 561.127 150.798 561.223 150.155V149.319C561.223 149.041 561.271 148.724 561.357 148.349V146.054V146.044Z" fill="#004494"></path>
  <path d="M638.581 174.442C638.485 174.625 638.437 174.769 638.437 174.855C638.34 175.048 638.254 175.201 638.158 175.336C638.062 175.48 637.976 175.643 637.88 175.825C637.697 176.104 637.486 176.382 637.255 176.661C637.025 176.939 636.775 177.218 636.497 177.496C635.661 178.418 634.672 179.321 633.51 180.205C632.348 181.088 630.984 181.847 629.409 182.5C627.93 183.24 626.221 183.797 624.271 184.171C622.322 184.536 620.247 184.728 618.019 184.728C613.487 184.728 609.597 184.315 606.361 183.48C603.115 182.644 600.57 181.444 598.716 179.869C596.767 178.198 595.221 176.421 594.068 174.519C592.906 172.618 592.099 170.649 591.638 168.613C591.456 167.97 591.293 167.317 591.158 166.663C591.024 166.02 590.947 165.367 590.947 164.724C590.851 164.08 590.812 163.446 590.812 162.851V160.978C590.995 156.071 592.378 151.979 594.971 148.685C597.564 145.401 601.271 143.019 606.082 141.53C610.99 139.955 616.166 138.774 621.63 137.987C627.085 137.199 632.828 136.805 638.849 136.805C638.849 134.952 638.753 133.194 638.571 131.523C638.379 129.852 638.148 128.325 637.87 126.942C637.505 125.55 636.766 124.493 635.652 123.744C634.547 123.005 633.059 122.63 631.205 122.63C629.726 122.63 628.478 122.842 627.45 123.255C626.432 123.677 625.597 124.253 624.953 124.993C624.31 125.828 623.82 126.664 623.503 127.49C623.176 128.325 622.917 129.199 622.735 130.131C622.735 130.227 622.716 130.361 622.668 130.544C622.619 130.736 622.6 130.87 622.6 130.966C622.504 131.149 622.466 131.312 622.466 131.447V133.598L596.219 133.319C596.219 129.343 597.055 125.886 598.716 122.976C600.387 120.057 602.932 117.723 606.361 115.965C609.693 114.112 613.438 112.748 617.606 111.865C621.774 110.981 626.307 110.549 631.215 110.549C635.565 110.549 639.666 110.962 643.507 111.797C647.349 112.633 650.892 113.881 654.129 115.543C657.365 117.214 659.814 119.269 661.485 121.728C663.156 124.186 663.982 127.029 663.982 130.265V166.097C663.982 167.297 664.001 168.527 664.049 169.775C664.097 171.024 664.164 172.349 664.261 173.732C664.357 175.124 664.558 176.555 664.885 178.034C665.211 179.513 665.643 181.002 666.2 182.481H639.954C639.858 182.481 639.819 182.433 639.819 182.346V182.068C639.723 181.885 639.656 181.645 639.608 181.376C639.56 181.107 639.493 180.781 639.397 180.406C639.301 180.041 639.234 179.638 639.186 179.225C639.138 178.812 639.07 178.322 638.974 177.765C638.878 177.208 638.84 176.613 638.84 175.96V173.741C638.744 174.02 638.648 174.25 638.561 174.433L638.581 174.442ZM637.121 150.068C636.516 150.116 635.892 150.135 635.248 150.135C634.605 150.135 633.971 150.155 633.375 150.203C632.78 150.251 632.146 150.318 631.503 150.414C629.928 150.606 628.401 150.875 626.922 151.249C625.443 151.624 624.012 152.085 622.619 152.642C621.237 153.199 620.171 153.89 619.431 154.726C618.682 155.562 618.221 156.532 618.039 157.646V157.924C617.943 158.02 617.904 158.116 617.904 158.203V158.616C617.808 158.712 617.77 158.808 617.77 158.894V159.586C617.77 160.786 618.019 161.948 618.528 163.052C619.037 164.166 619.806 165.233 620.824 166.251C621.842 167.269 622.927 168.037 624.089 168.546C625.241 169.055 626.471 169.314 627.767 169.314H628.602C628.881 169.314 629.198 169.266 629.572 169.18C629.851 169.084 630.129 168.997 630.408 168.901C630.686 168.815 630.965 168.719 631.243 168.623C631.8 168.44 632.357 168.162 632.914 167.787C633.471 167.422 634.019 166.952 634.586 166.395C635.325 165.655 635.92 164.887 636.391 164.099C636.852 163.312 637.227 162.457 637.495 161.535C637.774 160.613 638.024 159.682 638.254 158.76C638.485 157.838 638.648 156.906 638.744 155.984V155.216C638.744 154.985 638.792 154.726 638.878 154.448V149.722C638.321 149.905 637.745 150.02 637.14 150.068H637.121Z" fill="#004494"></path>
  <path d="M696.012 81.9492V182.491H669.766V81.9492H696.012Z" fill="#004494"></path>
  <path d="M729.195 81.9492V99.4472H701.844V81.9492H729.195ZM729.195 111.394V182.5H701.844V111.385H729.195V111.394Z" fill="#004494"></path>
  <path d="M808.878 153.977C808.878 159.346 807.946 163.955 806.102 167.797C804.249 171.638 801.425 174.808 797.632 177.314C793.925 179.811 789.901 181.665 785.551 182.865C781.2 184.066 776.571 184.671 771.664 184.671C765.921 184.671 760.946 184.094 756.73 182.932C752.514 181.78 749.067 180.042 746.387 177.727C743.708 175.317 741.461 172.8 739.655 170.159C737.85 167.518 736.486 164.762 735.554 161.891C735.093 160.498 734.719 159.134 734.44 157.79C734.162 156.455 733.931 155.13 733.749 153.833C733.653 152.537 733.566 151.288 733.47 150.078C733.374 148.878 733.336 147.715 733.336 146.611C733.614 140.868 734.7 135.778 736.601 131.331C738.503 126.885 741.211 123.091 744.726 119.941C748.25 116.801 752.245 114.439 756.74 112.863C761.234 111.288 766.199 110.501 771.673 110.501C772.509 110.501 773.402 110.52 774.382 110.568C775.352 110.616 776.302 110.683 777.224 110.779C778.242 110.876 779.241 110.943 780.211 110.991C781.181 111.039 782.132 111.154 783.054 111.337C786.29 111.894 789.392 112.796 792.359 114.045C795.317 115.293 798.15 116.897 800.83 118.837C803.509 120.787 805.526 123.351 806.87 126.549C808.205 129.747 808.887 133.521 808.887 137.872L781.527 137.593C781.527 135.836 781.315 134.241 780.902 132.801C780.489 131.37 779.856 130.141 779.03 129.123C778.194 128.105 777.157 127.317 775.909 126.76C774.66 126.203 773.239 125.925 771.673 125.925C770.002 125.925 768.571 126.405 767.371 127.384C766.161 128.354 765.153 129.766 764.317 131.62C763.482 133.569 762.867 135.692 762.444 138.006C762.031 140.321 761.82 142.818 761.82 145.507V148.282C761.82 150.875 761.983 153.324 762.3 155.639C762.627 157.953 763.117 160.181 763.76 162.304C764.403 164.34 765.373 165.895 766.67 166.961C767.966 168.027 769.637 168.556 771.673 168.556C773.239 168.556 774.66 168.277 775.909 167.72C777.157 167.163 778.204 166.289 779.03 165.079C779.865 163.965 780.489 162.515 780.902 160.709C781.315 158.904 781.527 156.753 781.527 154.256V153.977H808.887H808.878Z" fill="#004494"></path>
  <path d="M840.45 111.432V181.424C840.45 185.122 840.171 188.598 839.614 191.844C839.057 195.081 838.231 198.087 837.117 200.872C836.013 203.647 833.554 205.731 829.761 207.124C825.967 208.517 820.772 209.246 814.213 209.342H811.85C811.485 209.246 811.111 209.208 810.746 209.208H809.497C808.662 209.112 807.836 209.045 807 208.997C806.165 208.949 805.291 208.881 804.359 208.785V191.287H804.638C804.734 191.287 804.82 191.335 804.916 191.422H806.443C808.114 191.422 809.43 191.143 810.4 190.586C811.37 190.029 811.994 189.194 812.273 188.089C812.551 186.985 812.753 185.775 812.897 184.478C813.031 183.182 813.108 181.885 813.108 180.589V111.432H840.469H840.45ZM840.45 81.9873V99.4853H813.089V81.9873H840.45Z" fill="#004494"></path>
  <path d="M892.354 174.385C892.258 174.567 892.21 174.711 892.21 174.798C892.114 174.99 892.028 175.144 891.931 175.278C891.835 175.422 891.749 175.585 891.653 175.768C891.471 176.046 891.259 176.325 891.029 176.603C890.798 176.882 890.549 177.16 890.27 177.439C889.435 178.361 888.445 179.264 887.283 180.147C886.121 181.031 884.758 181.789 883.183 182.442C881.704 183.182 879.994 183.739 878.045 184.113C876.095 184.478 874.021 184.67 871.793 184.67C867.26 184.67 863.371 184.258 860.134 183.422C856.888 182.586 854.343 181.386 852.49 179.811C850.54 178.14 848.994 176.363 847.842 174.462C846.68 172.56 845.873 170.591 845.412 168.555C845.229 167.912 845.066 167.259 844.932 166.606C844.797 165.962 844.72 165.309 844.72 164.666C844.624 164.022 844.586 163.389 844.586 162.793V160.92C844.768 156.013 846.151 151.922 848.744 148.628C851.337 145.343 855.044 142.961 859.856 141.473C864.763 139.898 869.939 138.717 875.404 137.929C880.859 137.142 886.601 136.748 892.623 136.748C892.623 134.894 892.527 133.137 892.344 131.466C892.152 129.795 891.922 128.268 891.643 126.885C891.278 125.492 890.539 124.436 889.425 123.687C888.321 122.947 886.832 122.573 884.979 122.573C883.5 122.573 882.251 122.784 881.223 123.197C880.206 123.62 879.37 124.196 878.727 124.935C878.083 125.771 877.593 126.606 877.276 127.432C876.95 128.268 876.691 129.142 876.508 130.073C876.508 130.169 876.489 130.304 876.441 130.486C876.393 130.678 876.374 130.813 876.374 130.909C876.278 131.091 876.239 131.254 876.239 131.389V133.54L849.993 133.262C849.993 129.286 850.828 125.828 852.49 122.918C854.161 119.999 856.706 117.665 860.134 115.908C863.467 114.054 867.212 112.69 871.38 111.807C875.548 110.923 880.081 110.491 884.988 110.491C889.339 110.491 893.439 110.904 897.281 111.74C901.122 112.575 904.666 113.824 907.902 115.485C911.139 117.156 913.588 119.211 915.259 121.67C916.93 124.129 917.755 126.971 917.755 130.208V166.039C917.755 167.24 917.775 168.469 917.823 169.717C917.871 170.966 917.938 172.291 918.034 173.674C918.13 175.067 918.332 176.498 918.658 177.977C918.985 179.456 919.417 180.944 919.974 182.423H893.727C893.631 182.423 893.593 182.375 893.593 182.289V182.01C893.497 181.828 893.43 181.588 893.382 181.319C893.334 181.05 893.266 180.723 893.17 180.349C893.074 179.984 893.007 179.581 892.959 179.168C892.911 178.755 892.844 178.265 892.748 177.708C892.652 177.151 892.613 176.555 892.613 175.902V173.684C892.517 173.962 892.421 174.193 892.335 174.375L892.354 174.385ZM890.894 150.011C890.289 150.059 889.665 150.078 889.022 150.078C888.378 150.078 887.744 150.097 887.149 150.145C886.554 150.193 885.92 150.26 885.276 150.356C883.701 150.548 882.174 150.817 880.695 151.192C879.216 151.566 877.785 152.027 876.393 152.584C875.01 153.141 873.944 153.833 873.205 154.668C872.455 155.504 871.994 156.474 871.812 157.588V157.866C871.716 157.962 871.678 158.059 871.678 158.145V158.558C871.582 158.654 871.543 158.75 871.543 158.836V159.528C871.543 160.728 871.793 161.89 872.302 162.995C872.811 164.109 873.579 165.175 874.597 166.193C875.615 167.211 876.7 167.979 877.862 168.488C879.015 168.997 880.244 169.256 881.54 169.256H882.376C882.654 169.256 882.971 169.208 883.346 169.122C883.624 169.026 883.903 168.94 884.181 168.844C884.46 168.757 884.738 168.661 885.017 168.565C885.574 168.383 886.131 168.104 886.688 167.729C887.245 167.365 887.792 166.894 888.359 166.337C889.098 165.597 889.694 164.829 890.164 164.042C890.625 163.254 891 162.399 891.269 161.477C891.547 160.555 891.797 159.624 892.028 158.702C892.258 157.78 892.421 156.848 892.517 155.926V155.158C892.517 154.928 892.565 154.668 892.652 154.39V149.665C892.095 149.847 891.519 149.963 890.914 150.011H890.894Z" fill="#004494"></path>
  <path d="M203.087 331.031C195.653 336.323 185.714 336.323 178.29 331.031C122.004 290.955 0 206.692 0 102.251C0 45.781 45.7802 0 102.23 0C137.206 0 168.024 17.6037 186.444 44.4077C188.489 47.3848 192.888 47.3848 194.943 44.4077C213.362 17.6037 244.161 0 279.156 0C335.616 0 381.386 45.781 381.386 102.251C381.358 206.692 259.363 290.955 203.087 331.031Z" fill="#D31C3F"></path>
  <path d="M197.828 266.13C193.507 269.203 187.735 269.203 183.433 266.13C152.365 244.012 86.8208 198.702 80.4057 142.194C76.4394 107.265 102.014 75.1691 137.144 73.9398C157.234 73.2387 175.154 82.5447 186.4 97.2481C188.561 100.072 192.729 100.062 194.89 97.2385C205.723 83.0633 222.778 73.9014 242.005 73.9014C274.791 73.9014 301.374 100.485 301.374 133.281C301.355 193.929 230.519 242.86 197.828 266.139V266.13Z" fill="white"></path>
</svg>
