<svg xmlns="http://www.w3.org/2000/svg" viewBox="100 400 800 125" fill="var(--logo-fill, #fff)">
    <path d="M899.75 404.142v118.362H100.251l-.239-4.554-.009-108.476c0-5.324.01-5.331 5.486-5.331l538.375-.001h250.174 5.712zm-341.119 6.581v105.519h334.788V410.723H558.631zm-407.514 56.548l-11.157-41.408-20.113 7.393c.074.598.067.981.173 1.328l18.961 61.27c.318 1.008 2.196 2.113 3.386 2.158 5.457.206 10.932-.071 16.393.077 2.596.07 3.703-.728 4.246-3.383 1.972-9.647 4.229-19.235 6.563-29.666l6.027 28.195c.623 3.177 1.766 4.768 5.297 4.982 5.035.305 10.041 1.235 15.033 2.056 2.07.341 3.122-.102 3.776-2.269 1.878-6.228 4.019-12.376 6.03-18.564l15.737-48.506-19.363-7.352-14.037 43.673c-.928-.608-1.12-1.07-1.223-1.55l-7.336-33.944c-.261-1.18-.957-3.097-1.678-3.208-5.328-.825-10.714-1.279-16.192-1.862l-10.523 40.58zm331.722 17.716c-15.558-4.243-15.558-4.243-16.562-9.21 2.773-1.957 5.849-3.474 8.07-5.806 10.653-11.189 7.999-29.893-5.462-38.585-12.225-7.895-25.005-6.516-37.955-1.86-2.402.864-3.271 1.969-3.295 4.532l-.789 58.367-.002 4.321 18.499 1.377.976-20.066 1.056-.518c.845 1.5 1.997 2.907 2.487 4.516 3.899 12.797 17.545 22.076 30.673 20.667.116-.489.286-.996.35-1.516l1.954-16.219zM325.28 458.648c1.217-1.342 2.518-2.632 3.654-4.055 4.591-5.753 4.778-11.255.569-17.247-2.994-4.263-6.852-7.371-11.925-8.949-9.608-2.988-18.988-1.703-28.23 1.463-1.008.345-2.227 1.992-2.238 3.047l-.298 62.443c.001.915 1.139 2.479 1.967 2.644 11.749 2.352 23.528 3.289 35.172-.585 9.047-3.011 14.599-10.754 14.951-20.598.294-8.232-3.475-13.289-13.014-17.487-.21-.094-.338-.368-.608-.676zm214.063-33.817l-52.076 4.225 2.631 20.18 24.095-2.77-2.201 3.188-21.416 28.894c-.953 1.305-1.897 3.093-1.81 4.598.328 5.679 1.082 11.333 1.722 17.424l52.07-1.44-2.669-20.383-26.595 2.613 3.092-4.372 22.678-30.457c.767-1.036 1.833-2.299 1.785-3.415-.252-5.948-.815-11.882-1.306-18.285zm-118.161 71.725v-17.973l-29.849 1.393-.558-9.769 24.008-2.377.848-14.872-25.97-1.599v-6.41h26.849l2.476-17.672h-48.617l2.994 71.244 47.819-1.965zm-155.962 1l-.002-8.34c-.041-8.107-1.979-16.824.386-24.153 2.42-7.497 9.062-13.629 13.842-20.368l5.449-7.813-14.691-12.049-14.993 20.645-13.399-19.203-16.964 11.307c5.534 7.222 10.597 14.441 16.323 21.09 3.929 4.562 5.458 9.278 5.133 15.233-.441 8.078-.11 16.198-.11 24.577l19.026-.926zm79.283.765h18.227v-71.648c-4.863.308-9.478.801-14.095.822-3.082.014-3.729 1.277-3.733 4.093l-.385 37.175-.014 29.558zm291.003-52.541h-19.46v53.54h-21.51v-51.77h-18.74v-22.06l59.71-1.34v21.63zm141.27 44.42c-1.18 4.97-5.86 8.74-10.66 8.57-6.34-.22-9.79-3.81-11.56-12.68l-15.39 16.56-21.92-27.41c-.43.01-.86.01-1.29.01-.64 2.13-1.74 4.23-1.84 6.38-.26 5.57-.09 11.15-.09 17.07h-21.57v-71.79l20.7-1.13v20.57l21.82-22.41 14.75 16.95-17.23 18.67 22.92 24.84c5.39-6.85 9.91-8.71 14.96-6.33 4.7 2.21 7.49 7.51 6.4 12.13zm-110.54-64.07c-4.79-.18-9.6.1-14.39-.13-2.47-.12-3.5.93-4.37 2.99-2.28 5.4-4.74 10.72-7.13 16.06l-20.77 46.3 20.28 8.28c.97-2.35 1.98-4.37 2.62-6.5.89-2.95 2.43-4.34 5.75-3.98 3.16.36 6.39.03 9.58.09 3.3.08 7.42-.87 9.66.74 2.05 1.47 2.06 5.77 2.99 8.81.11.37.35.69.72 1.39l20.21-4.69-22.24-67.57c-.28-.85-1.89-1.75-2.91-1.79zm-13.58 42.04l5.15-13.02.97.01 3.41 13.01h-9.53zm166.28-40.49c-13.25-5-26.16-3.34-38.4 3.75-2.33 1.35-3.18 3.17-3.09 5.91l1.23 47.2c.12 5.03.02 10.07.02 15.55l21.12-1.99v-16.18l5.52-.01c16.82-.5 26.02-8.8 27.97-25.21 1.57-13.21-3.95-25.08-14.37-29.02zM799.086 453c0-.66-.11-1.35.02-1.99.52-2.51-1.81-6.01 2.81-7.09 4.97-1.15 9.69.09 11.77 3.53 2.22 3.65 2.13 9.62-.18 12.49-2.2 2.72-8.98 4.23-12.64 2.55-.8-.37-1.49-1.74-1.59-2.71-.24-2.24-.08-4.52-.08-6.78h-.11zm80.7 25.21v21.56h-45.19v-70.04l21.03-1.6v51.61l24.16-1.53zm-432.931-16.933l.969-15.315c.04-.54.599-1.498.905-1.493 3.611.057 7.516-.549 10.751.638 3.763 1.381 3.607 5.559 3.213 9.078-.409 3.651-2.408 6.403-6.1 6.996-2.955.475-6.047.096-9.738.096zm-142.153 20.894l.037-11.217c.011-.56.495-1.585.782-1.593 3.328-.086 6.939-.777 9.881.307 1.647.606 3.043 4.228 3.025 6.479-.028 3.498-2.637 5.699-6.281 5.989-2.334.186-4.694.035-7.444.035zm-.019-29.332l-.048-7.341c-.464-3.637.92-5.432 4.589-5.755 3.896-.343 6.452 1.09 7.37 4.44 1.013 3.696-.09 7.055-3.245 7.949-2.554.723-5.383.481-8.666.707zM116.18 595.013v-36.087h-15.93v-12.404h47.364v12.404h-15.858v36.087H116.18zm45.036 0l-11.347-48.491h16.21l4.229 20.722.353 1.727.493 2.537.493 2.503h.283l.317-1.516.353-1.797.352-1.833.318-1.621 4.159-20.722h15.364l4.441 20.722.387 1.904.529 2.502.493 2.362h.282l.318-1.587.317-1.797.318-1.797.317-1.586 3.947-20.722h15.506l-11.347 48.491h-17.127l-4.793-22.695-.423-2.15-.563-2.502-.493-2.185h-.283l-.458 2.079-.528 2.468-.493 2.29-4.793 22.695h-17.131zm86.694.845c-5.498 0-10.197-.94-14.096-2.82s-6.884-4.687-8.952-8.422-3.101-8.352-3.101-13.85c0-5.544 1.034-10.173 3.101-13.885s5.051-6.508 8.952-8.387 8.599-2.82 14.096-2.82c5.544 0 10.266.941 14.166 2.82s6.883 4.675 8.952 8.387 3.101 8.341 3.101 13.885c0 5.498-1.034 10.114-3.101 13.85s-5.051 6.544-8.952 8.422-8.622 2.82-14.166 2.82zm0-11.629c1.692 0 3.182-.27 4.475-.811s2.373-1.304 3.243-2.29 1.516-2.173 1.938-3.559.634-2.901.634-4.547v-4.51c0-1.644-.211-3.16-.634-4.547s-1.07-2.573-1.938-3.559-1.95-1.75-3.243-2.291-2.783-.81-4.475-.81-3.184.27-4.475.81-2.361 1.304-3.207 2.291-1.479 2.174-1.902 3.559-.634 2.902-.634 4.547v4.51c0 1.646.212 3.161.634 4.547s1.056 2.572 1.902 3.559 1.915 1.751 3.207 2.29 2.783.811 4.475.811zm-6.625-42.219l6.484-9.373h14.661l.141.282-11.278 9.092h-10.008zm57.724 53.848c-4.184 0-7.778-.612-10.784-1.832s-5.311-3.137-6.908-5.745-2.397-5.978-2.397-10.113v-.634h14.591v.563c0 2.255.423 3.842 1.268 4.758s2.091 1.374 3.736 1.374 2.89-.458 3.736-1.374 1.269-2.503 1.269-4.758v-31.575h15.577v31.647c0 4.135-.8 7.506-2.397 10.113s-3.901 4.524-6.907 5.745-6.603 1.831-10.784 1.831zm65.336 0c-8.082 0-14.131-2.115-18.149-6.344s-6.028-10.477-6.028-18.748c0-5.544 1.034-10.173 3.101-13.885s5.077-6.508 9.022-8.387 8.716-2.82 14.308-2.82c3.384 0 6.566.388 9.551 1.163s5.614 1.927 7.894 3.454 4.052 3.443 5.321 5.744 1.902 4.981 1.902 8.036h-14.871c0-1.034-.247-1.974-.74-2.82s-1.164-1.562-2.01-2.15-1.821-1.032-2.925-1.339a12.97 12.97 0 0 0-3.489-.458c-1.832 0-3.453.247-4.863.74s-2.572 1.234-3.489 2.22-1.609 2.163-2.079 3.524-.705 2.937-.705 4.723v4.51c0 2.35.41 4.359 1.233 6.027s2.067 2.948 3.736 3.841 3.724 1.339 6.167 1.339c1.644 0 3.16-.247 4.547-.74s2.502-1.21 3.348-2.15 1.269-2.02 1.269-3.243v-.282h-10.995v-9.868h25.866v27.065h-8.034l-1.551-4.793a23.24 23.24 0 0 1-4.793 3.101c-1.738.846-3.642 1.48-5.709 1.903s-4.345.637-6.835.637zm31.364-12.404v-6.908l31.294-19.312v7.048l-31.294 19.172zm5.216 11.559v-48.491H416.5v36.087h24.88v12.404h-40.455zm69.001.845c-5.498 0-10.197-.94-14.096-2.82s-6.884-4.687-8.952-8.422-3.101-8.352-3.101-13.85c0-5.544 1.034-10.173 3.101-13.885s5.051-6.508 8.952-8.387 8.599-2.82 14.096-2.82c5.544 0 10.266.941 14.166 2.82s6.883 4.675 8.952 8.387 3.101 8.341 3.101 13.885c0 5.498-1.034 10.114-3.101 13.85s-5.051 6.544-8.952 8.422-8.622 2.82-14.166 2.82zm0-11.629c1.692 0 3.182-.27 4.475-.811s2.373-1.304 3.243-2.29 1.516-2.173 1.939-3.559.634-2.901.634-4.547v-4.51c0-1.644-.211-3.16-.634-4.547s-1.07-2.573-1.939-3.559-1.95-1.75-3.243-2.291-2.783-.81-4.475-.81-3.184.27-4.475.81-2.361 1.304-3.207 2.291-1.479 2.174-1.902 3.559-.634 2.902-.634 4.547v4.51c0 1.646.211 3.161.634 4.547s1.056 2.572 1.902 3.559 1.915 1.751 3.207 2.29 2.783.811 4.475.811zm56.386 11.629c-3.338 0-6.45-.247-9.34-.741s-5.426-1.339-7.611-2.537-3.901-2.866-5.146-5.005-1.867-4.828-1.867-8.069v-.388c0-.164.023-.34.07-.529h14.731c-.048.189-.07.365-.07.529v.458c0 1.409.328 2.49.986 3.243s1.586 1.258 2.784 1.516 2.548.387 4.052.387l1.797-.035c.634-.023 1.245-.094 1.833-.212a6.91 6.91 0 0 0 1.621-.528c.493-.235.881-.552 1.163-.952s.423-.904.423-1.514c0-.892-.399-1.597-1.198-2.115s-1.88-.962-3.243-1.339l-4.582-1.057-5.286-1.163c-1.832-.447-3.594-1.022-5.286-1.727a18.61 18.61 0 0 1-4.582-2.713c-1.363-1.104-2.443-2.49-3.241-4.159s-1.199-3.677-1.199-6.027c0-2.818.587-5.215 1.762-7.188s2.784-3.57 4.828-4.793 4.37-2.115 6.978-2.678 5.345-.846 8.211-.846c2.913 0 5.65.294 8.211.881s4.828 1.492 6.802 2.713 3.524 2.773 4.652 4.652 1.716 4.112 1.762 6.697v.846h-14.589v-.283a4.8 4.8 0 0 0-.635-2.395c-.423-.752-1.092-1.363-2.009-1.833s-2.126-.705-3.629-.705c-1.41 0-2.597.141-3.559.423s-1.681.67-2.15 1.163-.705 1.022-.705 1.586c0 .894.398 1.622 1.198 2.185s1.878 1.035 3.242 1.41l4.582 1.057 5.286 1.091c1.832.4 3.594.929 5.286 1.587s3.218 1.516 4.58 2.572 2.443 2.362 3.243 3.912 1.199 3.454 1.199 5.709c0 3.995-.929 7.237-2.784 9.726s-4.394 4.311-7.613 5.463-6.871 1.725-10.958 1.725zm41.793-.845v-48.491h21.708l4.44 17.056.811 3.031 1.128 4.582 1.093 4.582h.564l.881-3.701 1.093-4.405.986-4.089 4.44-17.056h20.933v48.491H611.31v-17.479l.035-5.816.07-5.674.035-4.44h-.563l-.599 3.313-.81 3.771-.846 3.278-6.274 23.048h-11.63l-6.342-23.048-.811-3.278-.811-3.771-.635-3.241h-.563l.14 4.44.106 5.638.035 5.781v17.479h-13.742zm63.996 0l17.692-48.491h18.114l17.691 48.491h-16.493l-2.044-6.837h-16.986l-2.044 6.837h-15.93zm21.216-17.691h10.572l-2.326-7.754-.634-2.044-.705-2.537-.705-2.643-.635-2.291h-.564l-.74 2.89-.951 3.349-.987 3.276-2.325 7.754zm50.816 17.691v-48.491h21.708l4.44 17.056.811 3.031 1.128 4.582 1.093 4.582h.564l.881-3.701 1.093-4.405.986-4.089 4.44-17.056h20.933v48.491h-14.871v-17.479l.035-5.816.07-5.674.035-4.44h-.563l-.599 3.313-.81 3.771-.846 3.278-6.274 23.048h-11.63l-6.342-23.048-.811-3.278-.811-3.771-.635-3.241h-.563l.14 4.44.106 5.638.035 5.781v17.479h-13.743zm92.612.845c-5.498 0-10.197-.94-14.096-2.82s-6.884-4.687-8.952-8.422-3.101-8.352-3.101-13.85c0-5.544 1.034-10.173 3.101-13.885s5.051-6.508 8.952-8.387 8.599-2.82 14.096-2.82c5.544 0 10.266.941 14.166 2.82s6.883 4.675 8.952 8.387 3.101 8.341 3.101 13.885c0 5.498-1.034 10.114-3.101 13.85s-5.051 6.544-8.952 8.422-8.622 2.82-14.166 2.82zm0-11.629c1.692 0 3.182-.27 4.475-.811s2.373-1.304 3.243-2.29 1.516-2.173 1.938-3.559.635-2.901.635-4.547v-4.51c0-1.644-.211-3.16-.635-4.547s-1.07-2.573-1.938-3.559-1.95-1.75-3.243-2.291-2.783-.81-4.475-.81-3.184.27-4.475.81-2.362 1.304-3.207 2.291-1.479 2.174-1.902 3.559-.635 2.902-.635 4.547v4.51c0 1.646.211 3.161.635 4.547s1.056 2.572 1.902 3.559 1.915 1.751 3.207 2.29 2.783.811 4.475.811zm57.725 11.629c-5.498 0-10.114-.94-13.85-2.82s-6.555-4.687-8.459-8.422-2.855-8.352-2.855-13.85c0-8.27 2.126-14.519 6.379-18.748s10.513-6.344 18.784-6.344c4.698 0 8.798.787 12.298 2.362s6.214 3.911 8.141 7.013 2.891 6.907 2.891 11.417h-14.872c0-1.878-.329-3.499-.986-4.863s-1.611-2.419-2.855-3.171-2.808-1.128-4.688-1.128c-2.209 0-3.982.471-5.321 1.409s-2.315 2.255-2.925 3.947-.916 3.642-.916 5.851v4.51c0 2.209.317 4.159.951 5.851s1.609 3.007 2.925 3.947 3.031 1.409 5.146 1.409c2.066 0 3.771-.353 5.11-1.057a6.95 6.95 0 0 0 3.031-3.066c.682-1.339 1.021-2.925 1.021-4.757h14.379c0 4.416-.917 8.152-2.749 11.207s-4.488 5.369-7.964 6.942-7.683 2.361-12.616 2.361zm33.901-18.184l-2.891-31.152H900l-2.96 31.152h-8.669zm-2.608 17.339v-13.039h13.955v13.039h-13.955z"/>
</svg>
